<svg width="475" height="607" viewBox="0 0 475 607" fill="none" xmlns="http://www.w3.org/2000/svg">
<path d="M43 507C43 451.772 87.772 407 143 407H243V507C243 562.228 198.228 607 143 607C87.772 607 43 562.228 43 507Z" fill="#24CB71"/>
<path d="M243 7V207H343C398.228 207 443 162.228 443 107C443 51.772 398.228 7 343 7H243Z" fill="#FF7237"/>
<path d="M342.167 407C397.395 407 442.167 362.228 442.167 307C442.167 251.772 397.395 207 342.167 207C286.939 207 242.167 251.772 242.167 307C242.167 362.228 286.939 407 342.167 407Z" fill="#00B6FF"/>
<path d="M43 107C43 162.228 87.772 207 143 207H243V7H143C87.772 7 43 51.772 43 107Z" fill="#FF3737"/>
<path d="M43 307C43 362.228 87.772 407 143 407H243V207H143C87.772 207 43 251.772 43 307Z" fill="#874FFF"/>
</svg>
