<svg id="Layer_1" data-name="Layer 1" xmlns="http://www.w3.org/2000/svg" viewBox="0 0 604.71 690.41"><defs><style>.cls-1,.cls-2{fill:#103f77;}.cls-2{stroke:#fff;stroke-miterlimit:10;stroke-width:0.25px;}.cls-3{fill:#fff;}</style></defs><path class="cls-1" d="M365.92,738.89S182.57,577.27,166.25,543.33c0,0,51.36-12.84,74.88-17s50.41-9.63,52.33-11c0,0,105.12,38.53,203.05-25.22L605,481.42s-24.48,55.49-137.29,162.34C467.71,643.76,366.37,731.75,365.92,738.89Z" transform="translate(-80.74 -48.48)"/><path class="cls-1" d="M150.65,528.23l15.6-7.79s-2.3-33.48,0-37.61c0,0-65.35-65.58-50.22-186.65,0,0,24.08-202.93,242.83-212.56,0,0,167.85-7.56,231.82,174,0,0,27.52,59.88,0,163.28L590,446.83l26.83-2.06s53-123.13-8.94-237.33A278.53,278.53,0,0,0,442.09,61.61,276.09,276.09,0,0,0,352,48.54c-19.42.88-133.7,8.31-210.36,103.06-27.13,33.53-48.54,77.94-57.23,136.79C84.39,288.39,57.33,404.64,150.65,528.23Z" transform="translate(-80.74 -48.48)"/><path class="cls-1" d="M179.32,458.53s-1.38-11,9.63-8.95c0,0-53.66-99.74-18.58-196.73,0,0,29.58-99.06,125.89-135.52,0,0-74.29,61.91-84.61,163.72s15.72,134.14,15.72,134.14l9-7.57s-24.76-61.91-1.37-163,97.68-130,97.68-130-28.21,50.9-34.4,148.58c0,0,0,88,1.38,94.93l16.51-7.56s-4.82-97,6.19-147.21,18.14-81.86,36.93-96.31c0,0,40.8,53.66,40.8,199.49l14.45-7.57s3.9-122-35.77-185.73c0,0,88.05,34.4,105.25,165.1h16.51s-4.13-92.87-88.06-163c0,0,122.45,39.21,141.71,189.17,0,0,9.63,6.88,17.89,32.33,0,0-.69-235.95-216-240.77,0,0-158.22-8.25-203.62,162.35C152.49,258.35,122.22,369.79,179.32,458.53Z" transform="translate(-80.74 -48.48)"/><path class="cls-1" d="M166.25,199.19s159.59,45.4,383.16,0l8.25,13.07s-156.84,46.09-400.36,2.06Z" transform="translate(-80.74 -48.48)"/><path class="cls-1" d="M127,327.14V313.38l268.28,2.75s-9.63,6.19-9.63,13.76Z" transform="translate(-80.74 -48.48)"/><polygon class="cls-1" points="485.86 264.9 509.25 264.9 509.25 281.41 488.94 281.41 485.86 264.9"/><path class="cls-1" d="M144.47,414.5l87.82-3.43s-13.07,10.31-24.77,13.75l-59.16,2.75S148.15,428.26,144.47,414.5Z" transform="translate(-80.74 -48.48)"/><path class="cls-1" d="M95.39,563.09s15.47-37.15,270.28-80.49c0,0,214.37-35.08,319.78-24.07v11c-76.54,1.49-140.67,6.61-189,11.7-43,4.53-74.28,9.12-133.92,17.88-13,1.91-65.64,9.71-131.94,22.7-28.4,5.57-57.11,11.66-93.07,24.41C120,552.46,105.55,558.54,95.39,563.09Z" transform="translate(-80.74 -48.48)"/><path class="cls-1" d="M176.49,511.88c-1.8,1.16,0-33,0-33l34.85-28.74,1.23,43.41S200.31,496.53,176.49,511.88Z" transform="translate(-80.74 -48.48)"/><path class="cls-1" d="M219.29,434.22l1.22,55.64s18.65-11,78-31.33L297,374.91Z" transform="translate(-80.74 -48.48)"/><polygon class="cls-2" points="217.73 410.05 216.21 326.43 224.77 326.43 226.6 411.42 217.73 410.05"/><path class="cls-1" d="M452,415l29.35-5.2s73.69,2.92,95.39,9.56l1.61,30.8s-31.26,4.28-95.77,3.67C482.53,453.79,467.85,454.71,452,415Z" transform="translate(-80.74 -48.48)"/><path class="cls-1" d="M560.43,347.07s-8.56-22.32-19.57-35.77c0,0-26-20.18-80.4-16.51,0,0-8.26.3-56.26,30.57q-3.66,15.21-7.34,30.41l18.54,10.64.11-34.93,30.58-16.82L455,343.4,411.54,363l-14.68-7.2s-21.4,1.39-66.95,37.46l.92-18.34s13.75-7,41.58-23.54l-22.63-1.53A424.64,424.64,0,0,0,314.62,377l2.75,3.36V450.1s52.9-25.68,148.59-46.47c0,0,34.7-7.95,112.28,6.11,0,0,8.48-41.58-3.74-53.5,0,0-9.79-6.73-42.81-15.29-.51-2.44-1.15-5-2-7.63a92.39,92.39,0,0,0-10.35-22.63l-7.57-1.53s4,1.22,15.29,31.49c0,0-20.18-3.37-51.06-2.45l-12.23-30.57s13.69-2.9,46.13,1.36l13.91,3.19a36.2,36.2,0,0,1,9.62,3.7,37.83,37.83,0,0,1,14.72,15.29Z" transform="translate(-80.74 -48.48)"/><ellipse class="cls-1" cx="346.08" cy="397.24" rx="21.04" ry="22.75"/><ellipse class="cls-1" cx="297.64" cy="407.46" rx="18.54" ry="20.16"/><ellipse class="cls-1" cx="257.69" cy="418" rx="15.38" ry="16.36"/><ellipse class="cls-1" cx="206.42" cy="434.63" rx="11.31" ry="12.65"/><ellipse class="cls-1" cx="178.44" cy="441.56" rx="8.94" ry="10.83"/><circle class="cls-1" cx="156.43" cy="447.88" r="8.94"/><ellipse class="cls-1" cx="208.06" cy="506.39" rx="5.54" ry="4.47" transform="translate(-405.55 583.49) rotate(-80.92)"/><ellipse class="cls-1" cx="180.23" cy="516.33" rx="2.98" ry="3.59" transform="translate(-108.38 -37.99) rotate(-3.1)"/><ellipse class="cls-1" cx="193.39" cy="511.91" rx="3.23" ry="4.2" transform="translate(-108.12 -37.28) rotate(-3.1)"/><ellipse class="cls-3" cx="417.94" cy="324.27" rx="11.33" ry="12.17"/><ellipse class="cls-3" cx="486.24" cy="332.35" rx="8.29" ry="11.05"/></svg>